<svg width="27" height="18" viewBox="0 0 27 18" fill="none" xmlns="http://www.w3.org/2000/svg">
<path d="M17.0302 10.0276L14.8936 12.1714C14.0272 13.0409 12.5027 13.0596 11.6175 12.1714L9.48079 10.0276L1.80673 17.7266C2.09239 17.8587 2.40734 17.9375 2.74217 17.9375H23.7689C24.1037 17.9375 24.4186 17.8588 24.7041 17.7266L17.0302 10.0276Z" fill="white"/>
<path d="M23.7689 0H2.74218C2.40735 0 2.09239 0.0788254 1.80684 0.210915L10.0071 8.4384C10.0077 8.43895 10.0083 8.43905 10.0089 8.43959C10.0094 8.44014 10.0095 8.44089 10.0095 8.44089L12.6759 11.1161C12.9591 11.3993 13.5521 11.3993 13.8353 11.1161L16.5011 8.44134C16.5011 8.44134 16.5018 8.44014 16.5023 8.43959C16.5023 8.43959 16.5035 8.43895 16.5041 8.4384L24.7042 0.210865C24.4186 0.0787258 24.1038 0 23.7689 0Z" fill="white"/>
<path d="M0.738469 1.25623C0.590684 1.55508 0.5 1.88683 0.5 2.24219V15.6953C0.5 16.0507 0.590584 16.3824 0.738419 16.6813L8.42578 8.969L0.738469 1.25623Z" fill="white"/>
<path d="M25.7726 1.2561L18.0854 8.96898L25.7726 16.6814C25.9204 16.3825 26.0111 16.0508 26.0111 15.6953V2.24217C26.0111 1.88671 25.9204 1.55496 25.7726 1.2561Z" fill="white"/>
</svg>
