<svg width="126" height="126" viewBox="0 0 126 126" fill="none" xmlns="http://www.w3.org/2000/svg">
<ellipse opacity="0.6" cx="63.2434" cy="59.243" rx="46.1779" ry="46.1681" fill="white"/>
<g opacity="0.8" filter="url(#filter0_d_63_88409)">
<path d="M120.562 50.4604C120.837 52.3276 121.023 54.2237 121.116 56.1442L119.618 56.2166C119.662 57.1387 119.685 58.0667 119.685 59C119.685 59.9334 119.662 60.8613 119.618 61.7834L121.116 61.8559C121.023 63.7764 120.837 65.6724 120.562 67.5397L119.078 67.3213C118.806 69.1708 118.445 70.991 117.998 72.7775L119.454 73.1411C118.989 74.9995 118.436 76.8226 117.798 78.6054L116.385 78.0999C115.758 79.8538 115.046 81.5678 114.254 83.2371L115.61 83.8795C114.792 85.6055 113.891 87.2849 112.913 88.9125L111.628 88.1399C110.67 89.7332 109.637 91.2756 108.532 92.7621L109.736 93.6568C108.599 95.1867 107.389 96.6589 106.111 98.0681L105 97.0603C103.753 98.4346 102.44 99.7475 101.065 100.994L102.072 102.105C100.663 103.383 99.1903 104.593 97.66 105.729L96.7657 104.525C95.2789 105.629 93.7362 106.662 92.1426 107.619L92.9148 108.905C91.2869 109.882 89.6073 110.782 87.8811 111.6L87.239 110.244C85.5695 111.035 83.8554 111.747 82.1013 112.374L82.6065 113.787C80.8236 114.424 79.0004 114.978 77.1419 115.442L76.7786 113.986C74.9919 114.432 73.1716 114.794 71.3221 115.066L71.5403 116.55C69.6731 116.824 67.777 117.01 65.8565 117.103L65.7841 115.605C64.862 115.649 63.934 115.672 63.0006 115.672C62.0672 115.672 61.1393 115.649 60.2172 115.605L60.1448 117.103C58.2242 117.01 56.3282 116.824 54.4609 116.55L54.6791 115.066C52.8296 114.794 51.0093 114.432 49.2227 113.986L48.8594 115.442C47.0008 114.978 45.1777 114.424 43.3947 113.787L43.9 112.374C42.1459 111.747 40.4317 111.035 38.7623 110.244L38.1202 111.6C36.3939 110.782 34.7143 109.882 33.0865 108.905L33.8587 107.619C32.2651 106.662 30.7224 105.629 29.2355 104.525L28.3412 105.729C26.8109 104.593 25.3384 103.383 23.9288 102.105L24.9362 100.994C23.5615 99.7475 22.2482 98.4346 21.0014 97.0603L19.8905 98.0681C18.6121 96.6589 17.4018 95.1867 16.265 93.6568L17.4689 92.7621C16.3643 91.2756 15.3309 89.7332 14.3736 88.1399L13.0878 88.9125C12.1099 87.2849 11.2094 85.6055 10.3913 83.8795L11.7468 83.2371C10.9556 81.5678 10.2437 79.8538 9.61587 78.0999L8.20362 78.6054C7.56541 76.8226 7.01177 74.9995 6.54754 73.1411L8.00282 72.7775C7.55656 70.991 7.19508 69.1708 6.92295 67.3213L5.43892 67.5397C5.16418 65.6724 4.97816 63.7764 4.8853 61.8559L6.38355 61.7834C6.33896 60.8613 6.31641 59.9334 6.31641 59C6.31641 58.0667 6.33896 57.1387 6.38355 56.2166L4.8853 56.1442C4.97816 54.2237 5.16418 52.3276 5.43892 50.4604L6.92295 50.6787C7.19508 48.8293 7.55656 47.009 8.00282 45.2225L6.54754 44.859C7.01177 43.0005 7.56541 41.1774 8.20363 39.3946L9.61587 39.9001C10.2437 38.1462 10.9556 36.4322 11.7468 34.763L10.3913 34.1205C11.2094 32.3945 12.1099 30.7152 13.0878 29.0876L14.3736 29.8601C15.3309 28.2669 16.3643 26.7244 17.4689 25.2379L16.265 24.3432C17.4018 22.8133 18.6121 21.3411 19.8905 19.9319L21.0014 20.9398C22.2482 19.5655 23.5615 18.2526 24.9362 17.0062L23.9288 15.8949C25.3384 14.617 26.8109 13.4072 28.3412 12.2708L29.2355 13.4751C30.7224 12.3709 32.2651 11.3379 33.8587 10.381L33.0865 9.09506C34.7143 8.11762 36.3939 7.21754 38.1202 6.3999L38.7623 7.75553C40.4317 6.96481 42.1459 6.25327 43.9 5.62576L43.3947 4.21341C45.1777 3.57557 47.0008 3.02226 48.8594 2.5583L49.2227 4.01364C51.0093 3.56764 52.8296 3.20638 54.6791 2.93441L54.4609 1.45037C56.3282 1.17579 58.2242 0.989897 60.1448 0.897094L60.2172 2.39535C61.1393 2.35079 62.0672 2.32825 63.0006 2.32825C63.934 2.32825 64.862 2.35079 65.7841 2.39535L65.8565 0.897094C67.777 0.989897 69.6731 1.17579 71.5403 1.45037L71.3221 2.93441C73.1716 3.20638 74.9919 3.56764 76.7786 4.01364L77.1419 2.5583C79.0004 3.02226 80.8236 3.57557 82.6065 4.21342L82.1013 5.62576C83.8554 6.25327 85.5695 6.96481 87.239 7.75553L87.8811 6.3999C89.6073 7.21754 91.2869 8.11762 92.9148 9.09505L92.1426 10.381C93.7362 11.3379 95.2789 12.3709 96.7657 13.4751L97.66 12.2708C99.1903 13.4072 100.663 14.617 102.072 15.8949L101.065 17.0062C102.44 18.2526 103.753 19.5654 105 20.9398L106.111 19.9319C107.389 21.3411 108.599 22.8133 109.736 24.3432L108.532 25.2379C109.637 26.7244 110.67 28.2669 111.628 29.8601L112.913 29.0876C113.891 30.7152 114.792 32.3945 115.61 34.1205L114.254 34.763C115.046 36.4322 115.758 38.1462 116.385 39.9001L117.798 39.3946C118.436 41.1774 118.989 43.0005 119.454 44.859L117.998 45.2225C118.445 47.009 118.806 48.8293 119.078 50.6787L120.562 50.4604Z" stroke="white" stroke-width="3" stroke-dasharray="6 6" shape-rendering="crispEdges"/>
</g>
<path d="M79.7497 63.2905L60.3638 78.0803C58.0027 79.8816 55.3012 80.2836 52.2591 79.2862C49.217 78.2889 47.6934 76.5122 47.6885 73.9562L47.6885 44.6611C47.6885 42.1013 49.212 40.3227 52.2591 39.3254C55.3061 38.328 58.0077 38.7319 60.3638 40.537L79.7497 55.3268C80.4953 55.8956 81.0545 56.5119 81.4273 57.1755C81.8001 57.8391 81.9865 58.5502 81.9865 59.3086C81.9865 60.0671 81.8001 60.7781 81.4273 61.4418C81.0545 62.1054 80.4953 62.7217 79.7497 63.2905Z" fill="#EFEFEF"/>
<defs>
<filter id="filter0_d_63_88409" x="0.816406" y="0.828247" width="124.368" height="124.344" filterUnits="userSpaceOnUse" color-interpolation-filters="sRGB">
<feFlood flood-opacity="0" result="BackgroundImageFix"/>
<feColorMatrix in="SourceAlpha" type="matrix" values="0 0 0 0 0 0 0 0 0 0 0 0 0 0 0 0 0 0 127 0" result="hardAlpha"/>
<feOffset dy="4"/>
<feGaussianBlur stdDeviation="2"/>
<feComposite in2="hardAlpha" operator="out"/>
<feColorMatrix type="matrix" values="0 0 0 0 0 0 0 0 0 0 0 0 0 0 0 0 0 0 0.25 0"/>
<feBlend mode="normal" in2="BackgroundImageFix" result="effect1_dropShadow_63_88409"/>
<feBlend mode="normal" in="SourceGraphic" in2="effect1_dropShadow_63_88409" result="shape"/>
</filter>
</defs>
</svg>
